#Comment line ignore any data following # character 
#Hierarchical Translation and Rotation (.htr) file 
[Header]	
#Header keywords are followed by a single value 
FileType HTR		#Single word string
DataType HTRS		#Translation followed by rotation and scale data
FileVersion 1		#integer
NumSegments 84		#integer
NumFrames 2		#integer
DataFrameRate 30		#integer, data frame rate in this file
EulerRotationOrder ZYX
CalibrationUnits mm
RotationUnits Degrees
GlobalAxisofGravity Y
BoneLengthAxis Y
ScaleFactor 1.00
[SegmentNames&Hierarchy]
#CHILD	PARENT
MASTER GLOBAL
root MASTER
chest root
L_mid_tent01 root
R_mid_tent01 root
spine01 root
Bip01_Neck chest
L_humerus chest
R_humerus chest
weapon_bone chest
Bip01_Head Bip01_Neck
eye_left_bone Bip01_Head
eye_right_bone Bip01_Head
L_forearm L_humerus
L_front_hand L_forearm
L_weapon_bone L_forearm
L_front_hand01_01 L_front_hand
L_front_hand02_01 L_front_hand
L_front_hand03_01 L_front_hand
L_front_hand01_02 L_front_hand01_01
L_front_hand02_02 L_front_hand02_01
L_front_hand03_02 L_front_hand03_01
R_forearm R_humerus
R_front_hand R_forearm
R_weapon_bone R_forearm
R_front_hand01_01 R_front_hand
R_front_hand02_01 R_front_hand
R_front_hand03_01 R_front_hand
R_front_hand01_02 R_front_hand01_01
R_front_hand02_02 R_front_hand02_01
R_front_hand03_02 R_front_hand03_01
null_rope01_connect L_mid_tent01
Rope1_Seg01 null_rope01_connect
Rope1_Seg02 Rope1_Seg01
Rope1_Seg03 Rope1_Seg02
Rope1_Seg04 Rope1_Seg03
Rope1_Seg05 Rope1_Seg04
Rope1_Seg06 Rope1_Seg05
Rope1_Seg07 Rope1_Seg06
Rope1_Seg09 Rope1_Seg07
L_mid_hand01 Rope1_Seg09
L_mid_hand02 Rope1_Seg09
L_mid_hand03 Rope1_Seg09
null_rope02_connect R_mid_tent01
Rope2_Seg01 null_rope02_connect
Rope2_Seg02 Rope2_Seg01
Rope2_Seg03 Rope2_Seg02
Rope2_Seg04 Rope2_Seg03
Rope2_Seg05 Rope2_Seg04
Rope2_Seg06 Rope2_Seg05
Rope2_Seg07 Rope2_Seg06
Rope2_Seg09 Rope2_Seg07
R_mid_hand01 Rope2_Seg09
R_mid_hand02 Rope2_Seg09
R_mid_hand03 Rope2_Seg09
spine02 spine01
spine03 spine02
pelvis spine03
null_rope03_connect pelvis
null_rope04_connect pelvis
Rope3_Seg01 null_rope03_connect
Rope3_Seg02 Rope3_Seg01
Rope3_Seg03 Rope3_Seg02
Rope3_Seg04 Rope3_Seg03
Rope3_Seg05 Rope3_Seg04
Rope3_Seg06 Rope3_Seg05
Rope3_Seg07 Rope3_Seg06
Rope3_Seg08 Rope3_Seg07
Rope3_Seg09 Rope3_Seg08
R_rear_hand01 Rope3_Seg09
R_rear_hand02 Rope3_Seg09
R_rear_hand03 Rope3_Seg09
Rope4_Seg01 null_rope04_connect
Rope4_Seg02 Rope4_Seg01
Rope4_Seg03 Rope4_Seg02
Rope4_Seg04 Rope4_Seg03
Rope4_Seg05 Rope4_Seg04
Rope4_Seg06 Rope4_Seg05
Rope4_Seg07 Rope4_Seg06
Rope4_Seg08 Rope4_Seg07
Rope4_Seg09 Rope4_Seg08
L_rear_hand01 Rope4_Seg09
L_rear_hand02 Rope4_Seg09
L_rear_hand03 Rope4_Seg09
[BasePosition]
#SegmentName Tx, Ty, Tz, Rx, Ry, Rz, BoneLength
MASTER 0.000000 0.000000 0.000000 -90.000000 0.000000 0.000000 10.000000 
root 0.000000 0.000000 0.000000 0.000000 0.000000 0.000000 10.000000 
chest 0.000000 0.000000 0.000000 0.000000 0.000000 0.000000 10.000000 
L_mid_tent01 0.000000 0.000000 0.000000 0.000000 0.000000 0.000000 10.000000 
R_mid_tent01 0.000000 0.000000 0.000000 0.000000 0.000000 0.000000 10.000000 
spine01 0.000000 0.000000 0.000000 0.000000 0.000000 0.000000 10.000000 
Bip01_Neck 0.000000 0.000000 0.000000 0.000000 0.000000 0.000000 10.000000 
L_humerus 0.000000 0.000000 0.000000 0.000000 0.000000 0.000000 10.000000 
R_humerus 0.000000 0.000000 0.000000 0.000000 0.000000 0.000000 10.000000 
weapon_bone 0.000000 0.000000 0.000000 0.000000 0.000000 0.000000 10.000000 
Bip01_Head 0.000000 0.000000 0.000000 0.000000 0.000000 0.000000 10.000000 
eye_left_bone 0.000000 0.000000 0.000000 0.000000 0.000000 0.000000 10.000000 
eye_right_bone 0.000000 0.000000 0.000000 0.000000 0.000000 0.000000 10.000000 
L_forearm 0.000000 0.000000 0.000000 0.000000 0.000000 0.000000 10.000000 
L_front_hand 0.000000 0.000000 0.000000 0.000000 0.000000 0.000000 10.000000 
L_weapon_bone 0.000000 0.000000 0.000000 0.000000 0.000000 0.000000 10.000000 
L_front_hand01_01 0.000000 0.000000 0.000000 0.000000 0.000000 0.000000 10.000000 
L_front_hand02_01 0.000000 0.000000 0.000000 0.000000 0.000000 0.000000 10.000000 
L_front_hand03_01 0.000000 0.000000 0.000000 0.000000 0.000000 0.000000 10.000000 
L_front_hand01_02 0.000000 0.000000 0.000000 0.000000 0.000000 0.000000 10.000000 
L_front_hand02_02 0.000000 0.000000 0.000000 0.000000 0.000000 0.000000 10.000000 
L_front_hand03_02 0.000000 0.000000 0.000000 0.000000 0.000000 0.000000 10.000000 
R_forearm 0.000000 0.000000 0.000000 0.000000 0.000000 0.000000 10.000000 
R_front_hand 0.000000 0.000000 0.000000 0.000000 0.000000 0.000000 10.000000 
R_weapon_bone 0.000000 0.000000 0.000000 0.000000 0.000000 0.000000 10.000000 
R_front_hand01_01 0.000000 0.000000 0.000000 0.000000 0.000000 0.000000 10.000000 
R_front_hand02_01 0.000000 0.000000 0.000000 0.000000 0.000000 0.000000 10.000000 
R_front_hand03_01 0.000000 0.000000 0.000000 0.000000 0.000000 0.000000 10.000000 
R_front_hand01_02 0.000000 0.000000 0.000000 0.000000 0.000000 0.000000 10.000000 
R_front_hand02_02 0.000000 0.000000 0.000000 0.000000 0.000000 0.000000 10.000000 
R_front_hand03_02 0.000000 0.000000 0.000000 0.000000 0.000000 0.000000 10.000000 
null_rope01_connect 0.000000 0.000000 0.000000 0.000000 0.000000 0.000000 10.000000 
Rope1_Seg01 0.000000 0.000000 0.000000 0.000000 0.000000 0.000000 10.000000 
Rope1_Seg02 0.000000 0.000000 0.000000 0.000000 0.000000 0.000000 10.000000 
Rope1_Seg03 0.000000 0.000000 0.000000 0.000000 0.000000 0.000000 10.000000 
Rope1_Seg04 0.000000 0.000000 0.000000 0.000000 0.000000 0.000000 10.000000 
Rope1_Seg05 0.000000 0.000000 0.000000 0.000000 0.000000 0.000000 10.000000 
Rope1_Seg06 0.000000 0.000000 0.000000 0.000000 0.000000 0.000000 10.000000 
Rope1_Seg07 0.000000 0.000000 0.000000 0.000000 0.000000 0.000000 10.000000 
Rope1_Seg09 0.000000 0.000000 0.000000 0.000000 0.000000 0.000000 10.000000 
L_mid_hand01 0.000000 0.000000 0.000000 0.000000 0.000000 0.000000 10.000000 
L_mid_hand02 0.000000 0.000000 0.000000 0.000000 0.000000 0.000000 10.000000 
L_mid_hand03 0.000000 0.000000 0.000000 0.000000 0.000000 0.000000 10.000000 
null_rope02_connect 0.000000 0.000000 0.000000 0.000000 0.000000 0.000000 10.000000 
Rope2_Seg01 0.000000 0.000000 0.000000 0.000000 0.000000 0.000000 10.000000 
Rope2_Seg02 0.000000 0.000000 0.000000 0.000000 0.000000 0.000000 10.000000 
Rope2_Seg03 0.000000 0.000000 0.000000 0.000000 0.000000 0.000000 10.000000 
Rope2_Seg04 0.000000 0.000000 0.000000 0.000000 0.000000 0.000000 10.000000 
Rope2_Seg05 0.000000 0.000000 0.000000 0.000000 0.000000 0.000000 10.000000 
Rope2_Seg06 0.000000 0.000000 0.000000 0.000000 0.000000 0.000000 10.000000 
Rope2_Seg07 0.000000 0.000000 0.000000 0.000000 0.000000 0.000000 10.000000 
Rope2_Seg09 0.000000 0.000000 0.000000 0.000000 0.000000 0.000000 10.000000 
R_mid_hand01 0.000000 0.000000 0.000000 0.000000 0.000000 0.000000 10.000000 
R_mid_hand02 0.000000 0.000000 0.000000 0.000000 0.000000 0.000000 10.000000 
R_mid_hand03 0.000000 0.000000 0.000000 0.000000 0.000000 0.000000 10.000000 
spine02 0.000000 0.000000 0.000000 0.000000 0.000000 0.000000 10.000000 
spine03 0.000000 0.000000 0.000000 0.000000 0.000000 0.000000 10.000000 
pelvis 0.000000 0.000000 0.000000 0.000000 0.000000 0.000000 10.000000 
null_rope03_connect 0.000000 0.000000 0.000000 0.000000 0.000000 0.000000 10.000000 
null_rope04_connect 0.000000 0.000000 0.000000 0.000000 0.000000 0.000000 10.000000 
Rope3_Seg01 0.000000 0.000000 0.000000 0.000000 0.000000 0.000000 10.000000 
Rope3_Seg02 0.000000 0.000000 0.000000 0.000000 0.000000 0.000000 10.000000 
Rope3_Seg03 0.000000 0.000000 0.000000 0.000000 0.000000 0.000000 10.000000 
Rope3_Seg04 0.000000 0.000000 0.000000 0.000000 0.000000 0.000000 10.000000 
Rope3_Seg05 0.000000 0.000000 0.000000 0.000000 0.000000 0.000000 10.000000 
Rope3_Seg06 0.000000 0.000000 0.000000 0.000000 0.000000 0.000000 10.000000 
Rope3_Seg07 0.000000 0.000000 0.000000 0.000000 0.000000 0.000000 10.000000 
Rope3_Seg08 0.000000 0.000000 0.000000 0.000000 0.000000 0.000000 10.000000 
Rope3_Seg09 0.000000 0.000000 0.000000 0.000000 0.000000 0.000000 10.000000 
R_rear_hand01 0.000000 0.000000 0.000000 0.000000 0.000000 0.000000 10.000000 
R_rear_hand02 0.000000 0.000000 0.000000 0.000000 0.000000 0.000000 10.000000 
R_rear_hand03 0.000000 0.000000 0.000000 0.000000 0.000000 0.000000 10.000000 
Rope4_Seg01 0.000000 0.000000 0.000000 0.000000 0.000000 0.000000 10.000000 
Rope4_Seg02 0.000000 0.000000 0.000000 0.000000 0.000000 0.000000 10.000000 
Rope4_Seg03 0.000000 0.000000 0.000000 0.000000 0.000000 0.000000 10.000000 
Rope4_Seg04 0.000000 0.000000 0.000000 0.000000 0.000000 0.000000 10.000000 
Rope4_Seg05 0.000000 0.000000 0.000000 0.000000 0.000000 0.000000 10.000000 
Rope4_Seg06 0.000000 0.000000 0.000000 0.000000 0.000000 0.000000 10.000000 
Rope4_Seg07 0.000000 0.000000 0.000000 0.000000 0.000000 0.000000 10.000000 
Rope4_Seg08 0.000000 0.000000 0.000000 0.000000 0.000000 0.000000 10.000000 
Rope4_Seg09 0.000000 0.000000 0.000000 0.000000 0.000000 0.000000 10.000000 
L_rear_hand01 0.000000 0.000000 0.000000 0.000000 0.000000 0.000000 10.000000 
L_rear_hand02 0.000000 0.000000 0.000000 0.000000 0.000000 0.000000 10.000000 
L_rear_hand03 0.000000 0.000000 0.000000 0.000000 0.000000 0.000000 10.000000 
#Beginning of Data. Separated by tabs
#Fr	Tx	Ty	Tz	Rx	Ry	Rz	SF
[MASTER]
9 -1729.174438 1757.737549 1903.489990 0.001660 0.001660 0.001660 3114.957275
10 -2191.062256 2035.115723 2269.457275 0.001660 0.001660 0.001660 3754.049316
[root]
9 88.039398 1.047363 932.161499 -137.582687 -23.762768 -78.519798 936.310364
10 63.597561 -26.095734 516.133423 -152.384262 -18.225388 -74.175278 520.691223
[chest]
9 -84.512650 -34.090519 0.000000 -31.275579 -16.618666 -167.040863 91.129311
10 -84.512650 -34.090519 0.000000 -35.772598 -17.783867 -163.208527 91.129311
[L_mid_tent01]
9 27.298994 22.179258 -249.918686 -1.965315 21.679380 67.312241 252.381668
10 27.298983 22.179258 -249.918686 -1.929941 22.018822 67.324829 252.381668
[R_mid_tent01]
9 23.228794 24.509907 226.238495 172.799774 -25.693398 59.098362 228.744751
10 23.228794 24.509907 226.238495 173.260605 -25.414488 57.886974 228.744751
[spine01]
9 -0.361383 -0.195265 0.000000 0.001954 0.001300 22.739206 0.410763
10 -0.361383 -0.195265 0.000000 0.001955 0.001299 22.786291 0.410763
[Bip01_Neck]
9 165.484543 71.581718 0.000119 176.643677 -1.657967 43.431911 180.302734
10 165.484543 71.581718 0.000119 176.643677 -1.657967 43.431911 180.302734
[L_humerus]
9 -13.983130 -135.272980 -120.471481 13.301822 74.991051 103.196358 181.680161
10 -13.983130 -135.272980 -120.471481 21.187447 77.684509 111.190674 181.680161
[R_humerus]
9 -13.983309 -135.273102 125.287651 -175.602036 -79.987732 -89.374908 184.909012
10 -13.983309 -135.273102 125.287651 -172.777237 -73.534454 -92.207626 184.909012
[weapon_bone]
9 235.964890 -300.705902 0.000000 0.000000 -89.951546 -128.212341 382.234833
10 235.964890 -300.705902 0.000000 0.000000 -89.951546 -128.212341 382.234833
[Bip01_Head]
9 213.659042 185.118088 19.491425 17.151220 -1.457616 -43.900333 283.370422
10 213.619843 185.227051 18.079224 17.514528 -1.036712 -43.898361 283.318451
[eye_left_bone]
9 -24.626970 125.451866 -64.772606 0.000000 -90.000000 -99.840431 143.318359
10 -24.626970 125.451866 -64.772606 0.000000 -90.000000 -99.840431 143.318359
[eye_right_bone]
9 -24.626970 125.451866 64.327362 0.000000 -89.965736 80.156380 143.117676
10 -24.626970 125.451866 64.327362 0.000000 -89.965736 80.156380 143.117676
[L_forearm]
9 322.776093 0.000000 -0.000119 0.000425 -0.002308 -110.867699 322.776093
10 322.776093 0.000000 -0.000119 0.000427 -0.002308 -110.975800 322.776093
[L_front_hand]
9 241.149185 -0.042021 -3.300071 -178.667953 -1.835447 -27.422350 241.171753
10 241.149185 -0.042021 -3.300071 -178.667953 -1.835447 -27.422350 241.171753
[L_weapon_bone]
9 156.183838 0.000000 0.000000 0.000014 0.000007 0.000001 156.183838
10 156.183838 0.000000 0.000000 0.000014 0.000007 0.000001 156.183838
[L_front_hand01_01]
9 86.095154 20.947098 -0.655860 -0.289102 -0.524108 66.611076 88.609184
10 86.095154 20.947098 -0.655860 -0.279531 -0.529728 65.431473 88.609184
[L_front_hand02_01]
9 86.935165 -11.437475 24.513514 142.580521 -55.269005 -47.395390 91.046425
10 86.935165 -11.437475 24.513514 141.258118 -54.537659 -45.777599 91.046425
[L_front_hand03_01]
9 86.637497 -14.123976 -20.424902 -142.879883 53.494282 -49.391994 90.126129
10 86.637497 -14.123976 -20.424902 -141.638611 52.767319 -47.837204 90.126129
[L_front_hand01_02]
9 71.020905 -0.000179 0.000030 0.000315 -0.002326 -105.433167 71.020905
10 71.020905 -0.000179 0.000030 0.000315 -0.002326 -105.412971 71.020905
[L_front_hand02_02]
9 71.020927 -0.000119 0.000060 0.000315 -0.002326 -105.433167 71.020927
10 71.020927 -0.000119 0.000060 0.000315 -0.002326 -105.412971 71.020927
[L_front_hand03_02]
9 71.020905 -0.000060 0.000060 0.000315 -0.002326 -105.433167 71.020905
10 71.020905 -0.000060 0.000060 0.000315 -0.002326 -105.412971 71.020905
[R_forearm]
9 322.776428 -0.000060 0.000030 0.201249 0.067748 -109.534790 322.776428
10 322.776428 -0.000060 0.000030 0.201197 0.067902 -109.622543 322.776428
[R_front_hand]
9 238.847015 -0.006795 2.210259 -2.635298 -10.645460 -26.312506 238.857239
10 238.847015 -0.006795 2.210259 -2.635298 -10.645461 -26.312506 238.857239
[R_weapon_bone]
9 155.664093 0.002503 -0.000030 0.003487 0.001180 -90.988930 155.664078
10 155.664093 0.002503 -0.000030 0.003487 0.001180 -90.988930 155.664078
[R_front_hand01_01]
9 87.624611 14.231146 22.918642 -141.947067 -54.924736 46.726738 91.683487
10 87.624611 14.231146 22.918642 -140.102493 -53.853168 44.460335 91.683487
[R_front_hand02_01]
9 89.356956 14.367283 -19.491137 142.634140 53.329124 49.315857 92.579636
10 89.356956 14.367283 -19.491137 140.872437 52.278004 47.106758 92.579636
[R_front_hand03_01]
9 87.286232 -22.307278 -0.143439 0.092230 -0.445770 -66.286453 90.091743
10 87.286232 -22.307278 -0.143439 0.074609 -0.448192 -64.587509 90.091743
[R_front_hand01_02]
9 71.020905 0.000060 0.000119 0.002323 -0.000334 106.381714 71.020905
10 71.020905 0.000060 0.000119 0.002323 -0.000334 106.381714 71.020905
[R_front_hand02_02]
9 71.020844 -0.000030 -0.000119 0.002323 -0.000334 106.381714 71.020836
10 71.020844 -0.000030 -0.000119 0.002323 -0.000334 106.381714 71.020836
[R_front_hand03_02]
9 71.020905 0.000000 0.000030 0.002323 -0.000334 106.381714 71.020905
10 71.020905 0.000000 0.000030 0.002323 -0.000334 106.381714 71.020905
[null_rope01_connect]
9 328.732483 0.000000 -0.000238 -153.954453 -26.885223 -150.292023 328.732483
10 328.732483 0.000000 -0.000238 -157.692322 -12.766911 -144.946274 328.732483
[Rope1_Seg01]
9 0.000000 0.000000 0.000000 -17.063362 -61.425449 134.989426 0.000000
10 0.000000 0.000000 0.000000 42.345814 -62.597340 66.417961 0.000000
[Rope1_Seg02]
9 139.999863 -0.000179 0.000000 2.316526 27.384068 1.080371 139.999863
10 139.999863 -0.000179 0.000000 -0.881133 10.454456 -0.312369 139.999863
[Rope1_Seg03]
9 139.999924 0.000060 -0.000060 -5.131376 28.759800 0.019150 139.999924
10 139.999924 0.000060 -0.000060 -5.703921 22.400352 -2.370392 139.999924
[Rope1_Seg04]
9 139.999924 -0.000060 -0.000119 -5.864956 15.037045 -0.548279 139.999924
10 139.999924 -0.000060 -0.000119 -21.269815 35.700115 4.492783 139.999924
[Rope1_Seg05]
9 139.999832 0.000119 -0.000060 -3.136444 5.868836 0.425427 139.999832
10 139.999832 0.000119 -0.000060 -10.115573 5.740751 17.427851 139.999832
[Rope1_Seg06]
9 139.999954 0.000119 -0.000060 -2.067604 3.344679 0.475739 139.999954
10 139.999954 0.000119 -0.000060 -3.509701 2.487556 7.483357 139.999954
[Rope1_Seg07]
9 139.999985 0.000060 0.000000 -1.293323 1.944552 0.350715 139.999985
10 139.999985 0.000060 0.000000 -1.685559 1.245592 4.144273 139.999985
[Rope1_Seg09]
9 121.602913 0.000119 -0.000089 -89.793175 -1.359789 0.847147 121.602913
10 121.602913 0.000119 -0.000089 -89.793175 -1.359789 0.847147 121.602913
[L_mid_hand01]
9 103.859421 1.038730 8.195221 110.016693 -43.583393 -14.630751 104.187431
10 103.859421 1.038730 8.195221 109.301483 -41.408253 -13.576799 104.187431
[L_mid_hand02]
9 105.572853 -4.139662 -10.864139 -148.402451 33.171711 -41.059566 106.211075
10 105.572853 -4.139662 -10.864139 -147.153671 31.943630 -38.737034 106.211075
[L_mid_hand03]
9 104.641464 17.579376 -3.913581 -13.575850 13.082139 47.042397 106.179977
10 104.641464 17.579376 -3.913581 -14.087292 12.528420 44.741467 106.179977
[null_rope02_connect]
9 328.732849 0.000179 -0.000119 -27.048353 52.004623 101.330666 328.732849
10 328.732849 0.000179 -0.000119 -21.507675 38.768452 110.556305 328.732849
[Rope2_Seg01]
9 0.000045 0.000126 0.000000 46.396210 61.226807 -19.308159 0.000134
10 0.000046 0.000123 0.000000 55.586811 64.922737 -9.251946 0.000131
[Rope2_Seg02]
9 139.999741 -0.000060 -0.000119 -0.458390 14.409654 -3.795752 139.999756
10 139.999741 -0.000060 -0.000119 -2.279941 24.010628 -8.165830 139.999756
[Rope2_Seg03]
9 140.000107 0.000030 0.000000 -0.176531 0.834662 1.340723 140.000107
10 140.000107 0.000030 0.000000 -0.066037 6.187160 -2.993803 140.000107
[Rope2_Seg04]
9 139.999802 0.000000 -0.000060 -0.557535 10.245951 -3.410494 139.999802
10 139.999802 0.000000 -0.000060 -1.301253 9.343001 -2.581144 139.999802
[Rope2_Seg05]
9 139.999985 -0.000060 0.000119 -15.608965 46.526726 -24.008270 139.999985
10 139.999985 -0.000060 0.000119 -22.070126 33.352612 -7.362428 139.999985
[Rope2_Seg06]
9 139.999893 -0.000030 -0.000119 -155.107117 28.641632 -8.953915 139.999893
10 139.999893 -0.000030 -0.000119 -115.092964 33.950623 6.107765 139.999893
[Rope2_Seg07]
9 139.999893 0.000060 -0.000060 -9.360149 -6.451105 6.019382 139.999893
10 139.999893 0.000060 -0.000060 -10.799128 -6.824790 9.619303 139.999893
[Rope2_Seg09]
9 121.338966 0.000089 -0.000060 33.793236 -1.359788 -0.847141 121.338966
10 121.338966 0.000089 -0.000060 33.793236 -1.359788 -0.847141 121.338966
[R_mid_hand01]
9 104.680779 11.144459 -10.335981 -29.481638 39.038586 50.818592 105.778534
10 104.680779 11.144459 -10.335981 -31.399162 37.614391 47.725441 105.778534
[R_mid_hand02]
9 104.070427 2.443552 8.231699 64.792801 -54.379654 21.475649 104.424065
10 104.070427 2.443552 8.231699 66.339699 -51.820030 19.540783 104.424065
[R_mid_hand03]
9 106.028137 -11.221827 -5.996406 -172.901611 14.168235 -60.324341 106.788818
10 106.028137 -11.221827 -5.996406 -172.206848 13.802570 -57.446243 106.788818
[spine02]
9 129.756927 0.001550 0.000119 0.507895 -4.027822 -15.019211 129.756927
10 129.756927 0.001550 0.000119 0.517727 -4.026547 -15.159318 129.756927
[spine03]
9 78.614067 0.081742 -4.899004 1.981982 3.787788 17.786346 78.766602
10 78.614059 0.081742 -4.899004 1.987080 3.786018 17.866642 78.766594
[pelvis]
9 169.435242 0.051022 0.000000 3.848222 -0.819360 7.744452 169.435257
10 169.435242 0.051022 0.000000 4.512069 -0.867253 6.321167 169.435257
[null_rope03_connect]
9 -1.257226 -2.466202 137.391083 -166.199310 -51.234955 -108.585800 137.418976
10 -1.257226 -2.466202 137.391083 -170.254654 -37.285095 -104.350883 137.418976
[null_rope04_connect]
9 -1.259640 -2.480268 -137.844437 -166.199310 -51.234955 -108.585800 137.872513
10 -1.259640 -2.480268 -137.844437 -170.254654 -37.285095 -104.350883 137.872513
[Rope3_Seg01]
9 0.000000 0.000000 0.000000 14.509312 -6.216908 -59.849129 0.000000
10 0.000000 0.000000 0.000000 17.590580 5.179251 -49.892170 0.000000
[Rope3_Seg02]
9 139.999924 -0.000119 0.000060 11.583055 24.368811 19.524759 139.999924
10 139.999924 -0.000119 0.000060 17.061270 25.639238 6.028622 139.999924
[Rope3_Seg03]
9 139.999924 -0.000119 0.000119 42.172688 28.835270 17.645229 139.999924
10 139.999924 -0.000119 0.000119 33.988274 30.845814 -3.043996 139.999924
[Rope3_Seg04]
9 139.999924 0.000119 0.000000 36.295975 13.722643 -2.247243 139.999924
10 139.999924 0.000119 0.000000 15.366614 10.986731 -10.656011 139.999924
[Rope3_Seg05]
9 139.999924 -0.000238 0.000060 27.897287 9.563676 -9.376974 139.999924
10 139.999924 -0.000238 0.000060 11.768008 9.435997 -10.266066 139.999924
[Rope3_Seg06]
9 139.999893 -0.000119 -0.000060 21.241787 7.301379 -23.408689 139.999893
10 139.999893 -0.000119 -0.000060 13.608712 14.768538 -21.460546 139.999893
[Rope3_Seg07]
9 139.999771 0.000060 -0.000119 7.482107 -1.838005 -21.774916 139.999771
10 139.999771 0.000060 -0.000119 5.805611 7.193432 -21.695253 139.999771
[Rope3_Seg08]
9 139.999985 -0.000060 0.000000 2.070791 -2.118917 -9.839368 139.999985
10 139.999985 -0.000060 0.000000 1.591108 1.850409 -10.097076 139.999985
[Rope3_Seg09]
9 90.185997 -0.000179 -0.000060 89.793228 -1.359877 -0.847183 90.185997
10 90.185997 -0.000179 -0.000060 89.793228 -1.359877 -0.847183 90.185997
[R_rear_hand01]
9 103.366196 -6.073594 -10.757982 -169.405167 22.402494 -53.260647 104.101845
10 103.366196 -6.073594 -10.757982 -168.130341 21.777140 -49.871906 104.101845
[R_rear_hand02]
9 100.509819 12.039542 -7.992327 -25.038765 30.595238 50.476677 101.543350
10 100.509819 12.039542 -7.992327 -26.694445 29.195726 47.151855 101.543350
[R_rear_hand03]
9 101.539970 5.215704 5.435467 80.458855 -53.275665 11.535567 101.819031
10 101.539970 5.215704 5.435467 81.113556 -50.109848 10.702383 101.819031
[Rope4_Seg01]
9 0.000010 0.000032 -0.000126 -103.657585 -24.509901 -92.658920 0.000130
10 0.000010 0.000031 -0.000123 -108.660522 -24.722054 -79.157196 0.000127
[Rope4_Seg02]
9 139.999985 0.000060 0.000119 -8.321139 16.972040 -21.490797 139.999985
10 139.999985 0.000060 0.000119 -21.019108 11.210030 -33.315392 139.999985
[Rope4_Seg03]
9 139.999924 0.000000 -0.000238 -22.317314 31.606039 -68.493462 139.999924
10 139.999924 0.000000 -0.000238 -36.316902 21.539860 -62.476364 139.999924
[Rope4_Seg04]
9 139.999985 0.000000 0.000119 3.349017 23.962364 -2.029039 139.999985
10 139.999985 0.000000 0.000119 1.903499 24.426888 8.000498 139.999985
[Rope4_Seg05]
9 139.999802 -0.000060 -0.000119 -1.966229 10.773755 9.560989 139.999802
10 139.999802 -0.000060 -0.000119 -1.522201 12.708654 13.706204 139.999802
[Rope4_Seg06]
9 139.999924 0.000000 0.000060 0.110927 3.467884 1.647799 139.999924
10 139.999924 0.000000 0.000060 -0.544758 4.347201 3.213308 139.999924
[Rope4_Seg07]
9 139.999802 0.000000 0.000000 0.210646 2.077401 0.885963 139.999802
10 139.999802 0.000000 0.000000 -0.299432 2.549007 1.810598 139.999802
[Rope4_Seg08]
9 139.999924 0.000000 0.000119 -1.407421 1.224764 0.515877 139.999924
10 139.999924 0.000000 0.000119 -1.750547 1.477140 1.062428 139.999924
[Rope4_Seg09]
9 90.185791 0.000060 0.000060 -135.617828 2.228885 0.850567 90.185791
10 90.185791 0.000060 0.000060 -135.617828 2.228885 0.850567 90.185791
[L_rear_hand01]
9 101.696655 -8.392275 -7.654577 -31.553307 -23.761133 143.711090 102.329041
10 101.696655 -8.392275 -7.654577 -31.194277 -24.256094 142.819397 102.329041
[L_rear_hand02]
9 102.726799 -1.568258 5.773216 82.664520 39.085831 171.495636 102.900848
10 102.726799 -1.568258 5.773216 82.562164 40.032185 171.334641 102.900848
[L_rear_hand03]
9 104.552910 9.721220 -10.420293 -164.089569 -19.094522 -141.662735 105.519653
10 104.552910 9.721220 -10.420293 -164.408707 -19.357925 -140.691956 105.519653
